<svg id="Layer_1" data-name="Layer 1" xmlns="http://www.w3.org/2000/svg" viewBox="0 0 165.5 444.03" width="1380" height="209"><defs><style>.cls-1{fill:none;stroke:#000;stroke-width:4px;}</style></defs><title>transform_bar_ai</title><path class="cls-1" d="M150,472q0,8-8,8H78q-8,0-8-8Q2,136,30,44q1.2-4.39,8-4H178q8,0,4,8-68,104-52,264Z" transform="translate(-19.83 -37.97)"/><line class="cls-1" x1="43.75" y1="398.86" x2="125.86" y2="398.86"/><line class="cls-1" x1="35.93" y1="355.03" x2="120.45" y2="355.03"/><line class="cls-1" x1="26.23" y1="305.03" x2="114.04" y2="305.03"/><line class="cls-1" x1="18.1" y1="255.03" x2="108.55" y2="255.03"/><line class="cls-1" x1="11.61" y1="205.03" x2="107.17" y2="205.03"/><path class="cls-1" d="M127,246.06" transform="translate(-19.83 -37.97)"/><path class="cls-1" d="M31.44,246.06" transform="translate(-19.83 -37.97)"/><path class="cls-1" d="M129,207.76" transform="translate(-19.83 -37.97)"/><path class="cls-1" d="M27.35,207.76" transform="translate(-19.83 -37.97)"/><path class="cls-1" d="M134.33,169.47" transform="translate(-19.83 -37.97)"/><path class="cls-1" d="M23.75,169.47" transform="translate(-19.83 -37.97)"/><line class="cls-1" x1="4.07" y1="105.03" x2="120.07" y2="105.03"/><line class="cls-1" x1="5.75" y1="155.03" x2="111.5" y2="155.03"/><path class="cls-1" d="M137.37,188.62" transform="translate(-19.83 -37.97)"/><path class="cls-1" d="M21.07,188.62" transform="translate(-19.83 -37.97)"/><line class="cls-1" x1="1.93" y1="55.03" x2="137.93" y2="55.03"/></svg>