<svg id="Layer_1" data-name="Layer 1" xmlns="http://www.w3.org/2000/svg" xmlns:xlink="http://www.w3.org/1999/xlink" viewBox="0 0 161.5 440.03" width="1380" height="209"><defs><style>.cls-1{fill:none;stroke:#000;stroke-width:4px;}.cls-2{fill:url(#linear-gradient);}</style><linearGradient id="linear-gradient" x1="102.58" y1="497.12" x2="102.58" y2="-42.88" gradientUnits="userSpaceOnUse"><stop offset="0" stop-color="#26f5ee"/><stop offset="1" stop-color="#76fff8"/></linearGradient></defs><title>transform_bar_bottom</title><path class="cls-1" d="M145.69,436.82" transform="translate(-21.83 -39.97)"/><path class="cls-1" d="M63.59,436.82" transform="translate(-21.83 -39.97)"/><path class="cls-1" d="M140.28,393" transform="translate(-21.83 -39.97)"/><path class="cls-1" d="M55.76,393" transform="translate(-21.83 -39.97)"/><path class="cls-1" d="M133.88,343" transform="translate(-21.83 -39.97)"/><path class="cls-1" d="M46.06,343" transform="translate(-21.83 -39.97)"/><path class="cls-1" d="M128.38,293" transform="translate(-21.83 -39.97)"/><path class="cls-1" d="M37.94,293" transform="translate(-21.83 -39.97)"/><path class="cls-1" d="M127,243" transform="translate(-21.83 -39.97)"/><path class="cls-1" d="M31.44,243" transform="translate(-21.83 -39.97)"/><path class="cls-1" d="M127,246.06" transform="translate(-21.83 -39.97)"/><path class="cls-1" d="M31.44,246.06" transform="translate(-21.83 -39.97)"/><path class="cls-1" d="M129,207.76" transform="translate(-21.83 -39.97)"/><path class="cls-1" d="M27.35,207.76" transform="translate(-21.83 -39.97)"/><path class="cls-1" d="M134.33,169.47" transform="translate(-21.83 -39.97)"/><path class="cls-1" d="M23.75,169.47" transform="translate(-21.83 -39.97)"/><path class="cls-1" d="M131.33,193" transform="translate(-21.83 -39.97)"/><path class="cls-1" d="M25.59,193" transform="translate(-21.83 -39.97)"/><path class="cls-1" d="M137.37,188.62" transform="translate(-21.83 -39.97)"/><path class="cls-1" d="M21.07,188.62" transform="translate(-21.83 -39.97)"/><path class="cls-1" d="M157.77,93" transform="translate(-21.83 -39.97)"/><path class="cls-1" d="M21.77,93" transform="translate(-21.83 -39.97)"/><path class="cls-2" d="M182,48q-68,104-52,264l20,160q0,8-8,8H78q-8,0-8-8Q2,136,30,44q1.2-4.39,8-4H178Q186,40,182,48Z" transform="translate(-21.83 -39.97)"/></svg>